<svg width="18" height="18" viewBox="0 0 18 18" fill="none" xmlns="http://www.w3.org/2000/svg">
<g clip-path="url(#clip0_1290_187)">
<path d="M13.125 0.6875C12.2805 0.700636 11.4544 0.93639 10.7301 1.37095C10.0058 1.80552 9.40905 2.4235 9.00003 3.1625C8.59101 2.4235 7.99423 1.80552 7.26996 1.37095C6.54569 0.93639 5.71957 0.700636 4.87503 0.6875C3.52874 0.745993 2.26031 1.33494 1.34687 2.32567C0.433424 3.31641 -0.0507831 4.62839 2.97532e-05 5.975C2.97532e-05 11.0562 8.21703 16.925 8.56653 17.174L9.00003 17.4807L9.43353 17.174C9.78303 16.9265 18 11.0562 18 5.975C18.0508 4.62839 17.5666 3.31641 16.6532 2.32567C15.7398 1.33494 14.4713 0.745993 13.125 0.6875Z" fill="#C1C1C1"/>
</g>
<defs>
<clipPath id="clip0_1290_187">
<rect width="18" height="18" fill="white"/>
</clipPath>
</defs>
</svg>
